<svg id="Слой_1" data-name="Слой 1" xmlns="http://www.w3.org/2000/svg" viewBox="0 0 1063.23 265.86">
  <defs>
    <style>
      .cls-1 {
        fill: #ffffff;
      }

      .cls-2 {
        stroke: #ffffff;
        stroke-miterlimit: 10;
        stroke-width: 7px;
      }
    </style>
  </defs>
  <g>
    <g>
      <path class="cls-1" d="M664.93,672.63H629.58V443.56L555.66,599.43H534.59L461.2,443.56V672.63h-33V406.78h48.21l70.88,148,68.57-148h49.1Z" transform="translate(-428.17 -406.78)"/>
      <path class="cls-1" d="M939.71,672.63H904.36V542.47H771.7V672.63H736.35V406.78H771.7V511.05H904.36V406.78h35.35Z" transform="translate(-428.17 -406.78)"/>
    </g>
    <line class="cls-2" x1="585.08" y1="1.12" x2="585.08" y2="265.86"/>
    <g>
      <path class="cls-1" d="M1157.42,503.48h-11.16V422.17l-23.35,55.33h-6.65l-23.17-55.33v81.31h-10.43V409.11h15.22l22.38,52.54,21.66-52.54h15.5Z" transform="translate(-428.17 -406.78)"/>
      <path class="cls-1" d="M1244,503.48h-55.32V409.11H1244v11.15H1199.8v25.86H1244v11.16H1199.8v35.05H1244Z" transform="translate(-428.17 -406.78)"/>
      <path class="cls-1" d="M1341.24,456.39a53.39,53.39,0,0,1-5,23.32A40.27,40.27,0,0,1,1323,495.94a39,39,0,0,1-12.82,5.77q-7.08,1.77-18.64,1.77h-21.2V409.11h21q12.29,0,19.53,2a40.1,40.1,0,0,1,12.27,5.48,40.56,40.56,0,0,1,13.36,16Q1341.25,442.64,1341.24,456.39Zm-11.67-.19q0-11.08-3.44-18.7a27.2,27.2,0,0,0-10.26-12,32.5,32.5,0,0,0-10.54-4.4,62.91,62.91,0,0,0-13.37-1.24h-10.48v72.83H1292a66.06,66.06,0,0,0,14.07-1.33,29.67,29.67,0,0,0,11-4.95,27.49,27.49,0,0,0,9.39-11.85Q1329.57,467.23,1329.57,456.2Z" transform="translate(-428.17 -406.78)"/>
      <path class="cls-1" d="M1397.55,503.48h-33.16v-9.63h11V418.74h-11v-9.63h33.16v9.63h-11v75.11h11Z" transform="translate(-428.17 -406.78)"/>
      <path class="cls-1" d="M1491.4,503.48h-11.89l-8.23-26.3H1435l-8.23,26.3H1415.4L1446,409.11h14.88Zm-23.56-37.07-14.72-46.34-14.77,46.34Z" transform="translate(-428.17 -406.78)"/>
    </g>
    <g>
      <path class="cls-1" d="M1142.54,669.61h-11.16V622.84h-41.9v46.77h-11.16V574.07h11.16v37.47h41.9V574.07h11.16Z" transform="translate(-428.17 -406.78)"/>
      <path class="cls-1" d="M1237,631.24a73.11,73.11,0,0,1-2,18.13,30.6,30.6,0,0,1-6.57,12.86,26.15,26.15,0,0,1-10.15,7.13,37.54,37.54,0,0,1-13.53,2.24,36.6,36.6,0,0,1-13.76-2.37,25.51,25.51,0,0,1-9.87-7,31.64,31.64,0,0,1-6.57-12.7,71.69,71.69,0,0,1-2-18.29V574.07h11.17v57.81a63.34,63.34,0,0,0,.93,12.26,25.82,25.82,0,0,0,3.13,8.15,16,16,0,0,0,6.73,6.29,26.12,26.12,0,0,0,20.5,0,16.14,16.14,0,0,0,6.77-6.32,26,26,0,0,0,3.12-8.37,61.09,61.09,0,0,0,.94-11.72V574.07H1237Z" transform="translate(-428.17 -406.78)"/>
      <path class="cls-1" d="M1330.25,640.22a31.3,31.3,0,0,1-2.37,12.58,24.87,24.87,0,0,1-6.37,9,28.09,28.09,0,0,1-10.4,6,48.47,48.47,0,0,1-14.41,1.8h-29.77V574.07h24.87a90.51,90.51,0,0,1,13.76.77,26,26,0,0,1,8.74,3.21,16.65,16.65,0,0,1,6.71,7.09,23.7,23.7,0,0,1,2.08,10.36,21.14,21.14,0,0,1-3,11.59,22.88,22.88,0,0,1-8.12,7.66v.52a22.64,22.64,0,0,1,13.42,8.5Q1330.26,630.28,1330.25,640.22Zm-18.77-43.05a14.83,14.83,0,0,0-1-5.84,8.51,8.51,0,0,0-3.27-3.85,14.54,14.54,0,0,0-6.43-2.15,89.77,89.77,0,0,0-9.36-.41h-13.3v27.59h14.43a44.92,44.92,0,0,0,8.35-.61,14.88,14.88,0,0,0,7.4-3.91,5.47,5.47,0,0,0,.79-.94Q1311.49,603.35,1311.48,597.17Zm7.16,43.57a23,23,0,0,0-1.52-9.18,13.08,13.08,0,0,0-5.53-5.77,16.78,16.78,0,0,0-6.57-2.09,77.68,77.68,0,0,0-9.39-.48H1278.1v35.55h14.77a67.77,67.77,0,0,0,12-.87,17.47,17.47,0,0,0,7.67-3.17,15.62,15.62,0,0,0,4.62-5.71A20,20,0,0,0,1318.64,640.74Z" transform="translate(-428.17 -406.78)"/>
    </g>
  </g>
</svg>
