<svg width="174" height="28" viewBox="0 0 174 28" fill="none" xmlns="http://www.w3.org/2000/svg">
<path d="M0 26.7376L0.454894 0.823529C0.454894 0.607647 0.550745 0.400605 0.721364 0.247953C0.891982 0.0953009 1.12339 0.00954337 1.36468 0.00954337H5.9314C6.12193 0.00962761 6.30759 0.0634365 6.46199 0.163329C6.61638 0.263221 6.73166 0.404115 6.79144 0.56598L13.8814 19.5102C14.1088 20.1207 14.315 20.6772 14.4962 21.1859C14.5564 21.3483 14.6722 21.4896 14.8272 21.5898C14.9822 21.6899 15.1686 21.7438 15.3598 21.7438C15.551 21.7438 15.7374 21.6899 15.8924 21.5898C16.0474 21.4896 16.1632 21.3483 16.2234 21.1859C16.4603 20.5797 16.7162 19.9056 16.991 19.1637L24.1485 0.550081C24.21 0.389665 24.3259 0.250424 24.4801 0.151806C24.6343 0.0531881 24.819 0.000113567 25.0085 0H28.9178C29.1585 0.000841144 29.389 0.0869742 29.5588 0.239535C29.7287 0.392096 29.824 0.598658 29.824 0.813991L30.2789 26.728C30.2789 26.9434 30.1836 27.1499 30.0137 27.3025C29.8439 27.455 29.6134 27.5412 29.3727 27.542H26.1209C25.8796 27.542 25.6482 27.4562 25.4776 27.3036C25.307 27.1509 25.2111 26.9439 25.2111 26.728L25.9006 9.31316C25.9064 9.11699 25.8329 8.92553 25.6934 8.77404C25.554 8.62255 25.3581 8.52122 25.1418 8.48871C24.9255 8.4562 24.7034 8.49469 24.5163 8.59711C24.3292 8.69952 24.1898 8.85896 24.1236 9.04607L18.5725 27.0047C18.5104 27.1645 18.3943 27.303 18.2401 27.401C18.086 27.4991 17.9016 27.5517 17.7125 27.5515H12.7122C12.5217 27.5514 12.3361 27.498 12.1812 27.3988C12.0264 27.2996 11.9101 27.1596 11.8486 26.9983L6.1624 8.76626C6.09632 8.57948 5.95716 8.42029 5.77046 8.3179C5.58377 8.21552 5.36206 8.17682 5.14604 8.20891C4.93003 8.24099 4.73419 8.3417 4.59447 8.49256C4.45476 8.64342 4.38055 8.8343 4.38547 9.03017L5.32014 26.7376C5.32014 26.8445 5.2966 26.9503 5.25088 27.0491C5.20516 27.1478 5.13815 27.2375 5.05366 27.3131C4.96918 27.3887 4.86889 27.4487 4.75851 27.4896C4.64812 27.5305 4.52982 27.5515 4.41034 27.5515H0.909788C0.790313 27.5515 0.672009 27.5305 0.561628 27.4896C0.451247 27.4487 0.350951 27.3887 0.266469 27.3131C0.181988 27.2375 0.114973 27.1478 0.0692514 27.0491C0.0235303 26.9503 0 26.8445 0 26.7376V26.7376Z" fill="#149F98"/>
<path d="M51.6092 20.9633L54.3279 21.3036C54.4798 21.3195 54.6256 21.3664 54.7542 21.4406C54.8827 21.5148 54.9905 21.6143 55.0694 21.7316C55.1483 21.8488 55.1962 21.9807 55.2093 22.117C55.2225 22.2534 55.2006 22.3906 55.1453 22.5182C54.4878 24.0476 53.013 25.3799 51.6661 26.3115C50.0076 27.4371 47.8753 27.9999 45.2691 27.9999C42.0067 27.9999 39.4206 27.1022 37.511 25.3067C35.6014 23.5113 34.6454 20.9909 34.6431 17.7456C34.6431 14.3879 35.6097 11.7827 37.543 9.93001C39.4763 8.07734 41.9818 7.14995 45.0594 7.14783C48.0399 7.14783 50.4755 8.05614 52.3662 9.87277C54.2568 11.6894 55.2045 14.2448 55.2093 17.5389C55.2083 17.777 55.102 18.005 54.9134 18.1731C54.7249 18.3412 54.4697 18.4355 54.2035 18.4355H39.6753C39.5303 18.436 39.3871 18.4643 39.2554 18.5186C39.1237 18.5729 39.0065 18.6518 38.9118 18.7501C38.8172 18.8483 38.7472 18.9637 38.7066 19.0882C38.666 19.2128 38.6558 19.3437 38.6767 19.4721C38.9468 21.1679 39.6019 22.5012 40.642 23.4721C41.2383 24.0399 41.9618 24.4889 42.7653 24.7897C43.5687 25.0905 44.434 25.2363 45.3047 25.2177C46.5772 25.2521 47.8268 24.9089 48.8585 24.2415C49.6901 23.6883 50.0277 22.6136 50.5644 21.5071C50.651 21.3286 50.7991 21.1796 50.9871 21.0818C51.175 20.984 51.393 20.9425 51.6092 20.9633V20.9633ZM39.9206 15.647H50.0739C50.2212 15.6472 50.3667 15.6185 50.5002 15.5628C50.6337 15.5072 50.7519 15.426 50.8465 15.325C50.941 15.2241 51.0097 15.1057 51.0475 14.9784C51.0854 14.8511 51.0915 14.7179 51.0655 14.5882C50.9132 13.5989 50.476 12.662 49.7967 11.8696C49.2374 11.244 48.5238 10.7428 47.7118 10.4052C46.8998 10.0676 46.0114 9.90275 45.1163 9.92365C44.3067 9.90549 43.5015 10.0342 42.749 10.3019C41.9965 10.5697 41.3124 10.971 40.7379 11.4817C39.7931 12.3228 39.1614 13.4043 38.929 14.5786C38.9019 14.7089 38.9072 14.843 38.9445 14.9712C38.9817 15.0995 39.0501 15.2189 39.1448 15.3209C39.2394 15.4228 39.358 15.5049 39.492 15.5613C39.6261 15.6176 39.7724 15.6469 39.9206 15.647V15.647Z" fill="#149F98"/>
<path d="M74.2971 27.0174V26.5627C74.2967 26.4559 74.2606 26.3517 74.1934 26.2635C74.1262 26.1753 74.031 26.1071 73.9201 26.0677C73.8092 26.0283 73.6876 26.0196 73.5711 26.0427C73.4546 26.0657 73.3485 26.1195 73.2664 26.197C71.9349 27.3989 70.1995 27.9999 68.06 27.9999C66.3167 28.0086 64.6102 27.5513 63.1592 26.6867C61.6392 25.7804 60.4377 24.507 59.6942 23.0142C58.8434 21.3101 58.4236 19.459 58.4646 17.5929C58.4391 15.7436 58.817 13.9075 59.5769 12.1875C60.2306 10.6641 61.3982 9.36052 62.9176 8.45783C64.3958 7.59405 66.1275 7.14253 67.893 7.16054C69.1422 7.14009 70.377 7.4026 71.4824 7.92366C72.0478 8.19251 72.5742 8.52248 73.0496 8.90616C73.1345 8.97594 73.2403 9.0221 73.354 9.039C73.4677 9.05591 73.5844 9.04282 73.6899 9.00135C73.7955 8.95987 73.8852 8.89179 73.9482 8.80544C74.0112 8.71909 74.0448 8.61819 74.0447 8.51507V0.565981C74.0447 0.424308 74.1076 0.288436 74.2196 0.188258C74.3316 0.0880802 74.4834 0.0317993 74.6418 0.0317993H77.2077C77.366 0.0317993 77.5179 0.0880802 77.6298 0.188258C77.7418 0.288436 77.8047 0.424308 77.8047 0.565981V27.0396C77.8047 27.1813 77.7418 27.3172 77.6298 27.4173C77.5179 27.5175 77.366 27.5738 77.2077 27.5738H74.8941C74.8136 27.5739 74.7338 27.5593 74.6597 27.5311C74.5856 27.5029 74.5187 27.4616 74.4629 27.4096C74.4071 27.3576 74.3636 27.296 74.3352 27.2286C74.3067 27.1612 74.2937 27.0894 74.2971 27.0174V27.0174ZM62.349 17.5929C62.349 20.1494 62.9507 22.0571 64.1543 23.3163C65.3579 24.5754 66.7794 25.2113 68.419 25.2241C69.2281 25.2275 70.0274 25.0661 70.7565 24.752C71.4855 24.438 72.1251 23.9797 72.6267 23.4117C73.7829 22.2034 74.361 20.3592 74.361 17.8791C74.361 15.1488 73.7687 13.1446 72.5841 11.8664C72.0749 11.2684 71.417 10.7846 70.6626 10.4535C69.9082 10.1224 69.078 9.95293 68.2377 9.95862C67.4247 9.95207 66.6212 10.115 65.8908 10.4346C65.1605 10.7541 64.5233 11.2215 64.0299 11.7996C62.914 13.0206 62.3549 14.9517 62.3525 17.5929H62.349Z" fill="#149F98"/>
<path d="M83.7717 3.3068V0.600929C83.7717 0.523264 83.7888 0.446364 83.822 0.37461C83.8552 0.302857 83.9039 0.237656 83.9653 0.182738C84.0267 0.127821 84.0996 0.0842572 84.1798 0.0545359C84.2599 0.0248147 84.3459 0.00952148 84.4327 0.00952148H86.8884C86.9752 0.00952148 87.0612 0.0248147 87.1414 0.0545359C87.2216 0.0842572 87.2945 0.127821 87.3558 0.182738C87.4172 0.237656 87.4659 0.302857 87.4991 0.37461C87.5324 0.446364 87.5495 0.523264 87.5495 0.600929V3.3068C87.5495 3.46366 87.4798 3.61408 87.3558 3.72499C87.2319 3.83591 87.0637 3.89822 86.8884 3.89822H84.4327C84.2574 3.89822 84.0893 3.83591 83.9653 3.72499C83.8413 3.61408 83.7717 3.46366 83.7717 3.3068ZM83.7717 26.9601V8.20026C83.7717 8.04341 83.8413 7.89298 83.9653 7.78207C84.0893 7.67116 84.2574 7.60885 84.4327 7.60885H86.8884C87.0637 7.60885 87.2319 7.67116 87.3558 7.78207C87.4798 7.89298 87.5495 8.04341 87.5495 8.20026V26.9601C87.5495 27.117 87.4798 27.2674 87.3558 27.3783C87.2319 27.4892 87.0637 27.5515 86.8884 27.5515H84.4327C84.2574 27.5515 84.0893 27.4892 83.9653 27.3783C83.8413 27.2674 83.7717 27.117 83.7717 26.9601Z" fill="#149F98"/>
<path d="M108.059 26.1049C108.03 26.0045 107.974 25.9121 107.896 25.8355C107.818 25.7589 107.72 25.7005 107.611 25.6654C107.502 25.6303 107.386 25.6195 107.271 25.6341C107.156 25.6486 107.047 25.6879 106.954 25.7487C106 26.4066 104.949 26.9418 103.83 27.3385C102.496 27.7813 101.083 28.0032 99.661 27.9935C97.2136 27.9935 95.3312 27.4583 94.0139 26.3878C93.3712 25.8732 92.8616 25.2393 92.521 24.5303C92.1803 23.8213 92.0167 23.0543 92.0415 22.2829C92.0332 21.374 92.2749 20.4772 92.7453 19.6715C93.2157 18.8658 93.9003 18.176 94.7389 17.6629C95.5709 17.162 96.4894 16.7871 97.4576 16.5532C98.5641 16.3219 99.6858 16.153 100.816 16.0477C102.931 15.8608 105.026 15.5173 107.078 15.0206C107.216 14.9803 107.338 14.9029 107.426 14.7988C107.513 14.6947 107.563 14.569 107.568 14.4388C107.568 14.2268 107.568 14.0805 107.568 14C107.568 12.6221 107.213 11.6513 106.502 11.0874C105.54 10.3243 104.106 9.94276 102.198 9.94276C100.422 9.94276 99.109 10.2215 98.2608 10.779C97.5192 11.2644 96.947 12.0816 96.5443 13.2305C96.493 13.3695 96.3897 13.4885 96.2518 13.5672C96.1139 13.646 95.9498 13.6798 95.7873 13.6629L93.456 13.3799C93.3581 13.3663 93.2646 13.3345 93.1813 13.2866C93.0979 13.2387 93.0267 13.1758 92.9722 13.1019C92.9177 13.0279 92.881 12.9446 92.8645 12.8573C92.8481 12.7699 92.8522 12.6804 92.8767 12.5946C93.1554 11.6025 93.6559 10.6712 94.348 9.85691C95.2261 8.91872 96.383 8.22204 97.6851 7.84739C99.3084 7.35588 101.015 7.11922 102.728 7.14787C104.301 7.10253 105.871 7.30597 107.366 7.74882C108.373 8.04181 109.278 8.56326 109.992 9.26232C110.586 9.93328 110.99 10.7232 111.168 11.5644C111.326 12.5968 111.389 13.6389 111.357 14.6804V19.1891C111.357 22.3327 111.437 24.3211 111.598 25.1541C111.7 25.685 111.867 26.2043 112.096 26.7026C112.134 26.797 112.146 26.8979 112.131 26.9972C112.117 27.0965 112.077 27.1914 112.014 27.2742C111.951 27.3569 111.867 27.4252 111.769 27.4734C111.67 27.5216 111.561 27.5484 111.449 27.5516H109.057C108.919 27.5491 108.784 27.5104 108.67 27.4404C108.556 27.3704 108.467 27.272 108.414 27.1573C108.264 26.8157 108.145 26.4637 108.059 26.1049V26.1049ZM107.558 18.4229C107.555 18.3254 107.526 18.2299 107.476 18.1437C107.425 18.0575 107.352 17.9829 107.264 17.9258C107.176 17.8686 107.074 17.8304 106.966 17.814C106.859 17.7976 106.749 17.8036 106.644 17.8314C104.923 18.2841 103.164 18.6126 101.385 18.8139C100.259 18.9216 99.152 19.149 98.0866 19.4912C97.478 19.7158 96.9591 20.0991 96.5976 20.5914C96.1664 21.1943 95.9916 21.9157 96.1051 22.6242C96.2186 23.3327 96.6128 23.9812 97.2159 24.4514C97.9788 25.0513 99.0948 25.3513 100.564 25.3513C101.919 25.3742 103.258 25.0805 104.448 24.4991C105.531 23.9711 106.401 23.1526 106.936 22.1589C107.346 21.3958 107.549 20.2681 107.547 18.7758L107.558 18.4229Z" fill="#149F98"/>
<path d="M168.883 0.00952148H123.013C120.558 0.00952148 118.568 1.79041 118.568 3.98724V24.0221C118.568 26.219 120.558 27.9999 123.013 27.9999H168.883C171.339 27.9999 173.329 26.219 173.329 24.0221V3.98724C173.329 1.79041 171.339 0.00952148 168.883 0.00952148Z" fill="#CC2D6F"/>
<path d="M126.699 21.5579V6.19074C126.699 6.10051 126.739 6.01398 126.81 5.95017C126.881 5.88637 126.978 5.85052 127.079 5.85052H128.522C128.623 5.85052 128.72 5.88637 128.791 5.95017C128.862 6.01398 128.902 6.10051 128.902 6.19074V10.7949C128.902 10.8595 128.922 10.9228 128.961 10.9773C129 11.0319 129.055 11.0753 129.121 11.1024C129.186 11.1296 129.259 11.1393 129.331 11.1304C129.402 11.1215 129.469 11.0945 129.524 11.0524C130.434 10.3592 131.596 9.9882 132.79 10.0095C133.661 9.99143 134.522 10.1662 135.299 10.5182C135.97 10.8214 136.507 11.3175 136.824 11.9268C137.174 12.7576 137.33 13.644 137.282 14.5309V21.5579C137.282 21.6482 137.242 21.7347 137.171 21.7985C137.1 21.8623 137.003 21.8981 136.902 21.8981H135.459C135.358 21.8981 135.262 21.8623 135.19 21.7985C135.119 21.7347 135.079 21.6482 135.079 21.5579V14.5309C135.079 13.5452 134.842 12.8288 134.368 12.3815C134.102 12.1483 133.784 11.9678 133.435 11.8517C133.086 11.7355 132.714 11.6864 132.342 11.7074C131.694 11.7068 131.058 11.864 130.501 12.1621C129.95 12.4386 129.517 12.8716 129.272 13.3926C129 14.0808 128.879 14.8096 128.916 15.5389V21.5579C128.916 21.6482 128.876 21.7347 128.805 21.7985C128.734 21.8623 128.637 21.8981 128.536 21.8981H127.093C127.042 21.8999 126.991 21.8923 126.943 21.876C126.896 21.8597 126.852 21.8349 126.815 21.8031C126.778 21.7713 126.749 21.7333 126.729 21.6911C126.709 21.649 126.699 21.6037 126.699 21.5579V21.5579Z" fill="white"/>
<path d="M149.149 21.5993V21.0333C149.148 20.9739 149.128 20.9159 149.09 20.8669C149.052 20.8179 148.999 20.78 148.937 20.7582C148.875 20.7363 148.808 20.7315 148.743 20.7443C148.678 20.757 148.619 20.7868 148.573 20.8298C148.12 21.2648 147.569 21.6083 146.956 21.8375C146.343 22.0667 145.683 22.1763 145.019 22.1589C144.286 22.1624 143.559 22.0292 142.887 21.7678C142.303 21.5601 141.792 21.2178 141.405 20.7758C141.065 20.3371 140.833 19.8384 140.726 19.3131C140.618 18.7055 140.573 18.0903 140.591 17.4753V10.5596C140.596 10.4786 140.636 10.4026 140.702 10.347C140.768 10.2915 140.856 10.2606 140.946 10.2607H142.478C142.567 10.2607 142.652 10.2922 142.714 10.3483C142.777 10.4043 142.812 10.4804 142.812 10.5596V16.709C142.787 17.4044 142.832 18.1004 142.947 18.7885C143.064 19.2774 143.378 19.7108 143.828 20.0063C144.314 20.3129 144.898 20.4692 145.492 20.4515C146.146 20.4525 146.788 20.2954 147.35 19.9968C147.903 19.7187 148.336 19.2833 148.58 18.7599C148.856 18.0296 148.976 17.2596 148.935 16.4896V10.5596C148.935 10.4804 148.971 10.4043 149.033 10.3483C149.096 10.2922 149.181 10.2607 149.269 10.2607H150.801C150.89 10.2607 150.975 10.2922 151.037 10.3483C151.1 10.4043 151.135 10.4804 151.135 10.5596V21.5866C151.135 21.6659 151.1 21.7419 151.037 21.7979C150.975 21.854 150.89 21.8855 150.801 21.8855H149.5C149.456 21.8876 149.412 21.8819 149.37 21.8686C149.329 21.8553 149.29 21.8348 149.258 21.8082C149.225 21.7816 149.198 21.7494 149.18 21.7135C149.161 21.6777 149.15 21.6388 149.149 21.5993V21.5993Z" fill="white"/>
<path d="M156.157 21.8981H154.998C154.94 21.8981 154.882 21.8878 154.829 21.8678C154.775 21.8478 154.726 21.8184 154.685 21.7815C154.644 21.7445 154.612 21.7007 154.59 21.6525C154.568 21.6043 154.557 21.5527 154.558 21.5006V6.23839C154.558 6.13382 154.604 6.03354 154.687 5.9596C154.769 5.88566 154.881 5.84412 154.998 5.84412H156.317C156.434 5.84412 156.546 5.88566 156.628 5.9596C156.711 6.03354 156.757 6.13382 156.757 6.23839V10.5977C156.759 10.6733 156.785 10.7469 156.831 10.8099C156.878 10.873 156.944 10.9228 157.021 10.9535C157.098 10.9842 157.184 10.9945 157.267 10.9833C157.351 10.9721 157.429 10.9398 157.493 10.8902C158.285 10.3 159.288 9.98498 160.318 10.0031C161.101 10.0009 161.875 10.1484 162.589 10.4355C163.277 10.7071 163.881 11.1239 164.348 11.6501C164.836 12.2149 165.204 12.8551 165.432 13.5388C165.697 14.3049 165.829 15.1027 165.823 15.9045C165.823 17.8949 165.272 19.4349 164.171 20.5245C163.683 21.0385 163.076 21.4507 162.391 21.7319C161.707 22.0132 160.962 22.1568 160.208 22.1525C159.151 22.1768 158.123 21.8351 157.34 21.1986C157.277 21.1469 157.199 21.1126 157.115 21.0999C157.031 21.0871 156.945 21.0964 156.867 21.1267C156.788 21.157 156.722 21.207 156.675 21.2705C156.627 21.3341 156.602 21.4085 156.601 21.4847V21.4847C156.603 21.5383 156.594 21.5917 156.572 21.6417C156.551 21.6918 156.519 21.7375 156.477 21.7761C156.436 21.8147 156.386 21.8454 156.331 21.8664C156.276 21.8874 156.217 21.8981 156.157 21.8981V21.8981ZM156.576 15.9967C156.576 17.3926 156.786 18.3973 157.212 19.0173C157.906 20.0306 158.843 20.5383 160.023 20.5404C160.506 20.5347 160.981 20.4307 161.412 20.2362C161.843 20.0417 162.219 19.7619 162.511 19.418C163.222 18.6697 163.577 17.5547 163.577 16.073C163.577 14.5553 163.241 13.436 162.568 12.7153C162.282 12.3784 161.913 12.1053 161.489 11.9172C161.066 11.7291 160.599 11.6312 160.126 11.6311C159.643 11.6353 159.168 11.7387 158.737 11.9333C158.305 12.1279 157.93 12.4085 157.639 12.7535C156.928 13.5017 156.574 14.5828 156.576 15.9967V15.9967Z" fill="white"/>
</svg>
