<?xml version="1.0" encoding="utf-8"?>
<!-- Generator: Adobe Illustrator 25.4.1, SVG Export Plug-In . SVG Version: 6.00 Build 0)  -->
<svg version="1.1" id="Слой_1" xmlns="http://www.w3.org/2000/svg" xmlns:xlink="http://www.w3.org/1999/xlink" x="0px" y="0px"
	 viewBox="0 0 841.89 595.28" style="enable-background:new 0 0 841.89 595.28;" xml:space="preserve">
<style type="text/css">
	.st0{fill:#FFFFFF;}
	.st1{fill:#FFFFFF;stroke:#FFFFFF;stroke-width:3;stroke-miterlimit:10;}
</style>
<g>
	<path class="st0" d="M160.94,243.72h-7.35v-47.61l-15.36,32.4h-4.38l-15.25-32.4v47.61h-6.87v-55.26h10.02l14.73,30.76l14.25-30.76
		h10.21V243.72z"/>
	<path class="st0" d="M218.05,243.72h-7.35v-27.05h-27.57v27.05h-7.35v-55.26h7.35v21.67h27.57v-21.67h7.35V243.72z"/>
</g>
<line class="st1" x1="233.34" y1="188.7" x2="233.34" y2="243.72"/>
<g>
	<path class="st0" d="M263.3,208.57h-2.32v-16.9l-4.85,11.5h-1.38l-4.82-11.5v16.9h-2.17v-19.61h3.16l4.65,10.92l4.5-10.92h3.22
		V208.57z"/>
	<path class="st0" d="M281.28,208.57h-11.5v-19.61h11.5v2.32h-9.18v5.37h9.18v2.32h-9.18v7.28h9.18V208.57z"/>
	<path class="st0" d="M301.51,198.78c0,1.78-0.35,3.4-1.04,4.85c-0.69,1.45-1.61,2.57-2.76,3.37c-0.8,0.55-1.69,0.95-2.67,1.2
		c-0.98,0.25-2.27,0.37-3.87,0.37h-4.41v-19.61h4.36c1.7,0,3.06,0.14,4.06,0.42c1,0.28,1.85,0.66,2.55,1.14
		c1.19,0.83,2.11,1.95,2.78,3.33S301.51,196.87,301.51,198.78z M299.08,198.74c0-1.54-0.24-2.83-0.71-3.89s-1.19-1.88-2.13-2.49
		c-0.69-0.44-1.42-0.74-2.19-0.92c-0.77-0.17-1.7-0.26-2.78-0.26h-2.18v15.14h2.18c1.12,0,2.09-0.09,2.92-0.28
		c0.83-0.18,1.6-0.53,2.29-1.03c0.87-0.62,1.52-1.44,1.95-2.46C298.86,201.54,299.08,200.27,299.08,198.74z"/>
	<path class="st0" d="M313.21,208.57h-6.89v-2h2.29v-15.61h-2.29v-2h6.89v2h-2.29v15.61h2.29V208.57z"/>
	<path class="st0" d="M332.72,208.57h-2.47l-1.71-5.47h-7.55l-1.71,5.47h-2.36l6.35-19.61h3.09L332.72,208.57z M327.82,200.86
		l-3.06-9.63l-3.07,9.63H327.82z"/>
</g>
<g>
	<path class="st0" d="M260.21,243.1h-2.32v-9.72h-8.71v9.72h-2.32v-19.86h2.32v7.79h8.71v-7.79h2.32V243.1z"/>
	<path class="st0" d="M279.83,235.12c0,1.44-0.14,2.7-0.42,3.77c-0.28,1.07-0.73,1.96-1.37,2.67c-0.6,0.68-1.3,1.17-2.11,1.48
		s-1.74,0.47-2.81,0.47c-1.09,0-2.05-0.16-2.86-0.49c-0.81-0.33-1.5-0.81-2.05-1.45c-0.63-0.73-1.09-1.61-1.37-2.64
		c-0.28-1.03-0.42-2.3-0.42-3.8v-11.88h2.32v12.02c0,1.08,0.06,1.92,0.19,2.55c0.13,0.62,0.35,1.19,0.65,1.69
		c0.34,0.58,0.81,1.01,1.4,1.31c0.59,0.29,1.3,0.44,2.13,0.44c0.84,0,1.55-0.14,2.13-0.43c0.59-0.29,1.05-0.73,1.41-1.31
		c0.3-0.51,0.52-1.09,0.65-1.74c0.13-0.65,0.19-1.46,0.19-2.43v-12.08h2.32V235.12z"/>
	<path class="st0" d="M299.22,236.99c0,0.99-0.16,1.86-0.49,2.61c-0.33,0.76-0.77,1.38-1.32,1.87c-0.66,0.59-1.38,1-2.16,1.25
		c-0.79,0.25-1.78,0.37-2.99,0.37h-6.19v-19.86h5.17c1.27,0,2.23,0.05,2.86,0.16c0.63,0.11,1.24,0.33,1.82,0.67
		c0.64,0.38,1.11,0.87,1.39,1.47s0.43,1.32,0.43,2.15c0,0.94-0.21,1.75-0.63,2.41c-0.42,0.66-0.98,1.19-1.69,1.59v0.11
		c1.18,0.28,2.11,0.86,2.79,1.77S299.22,235.61,299.22,236.99z M295.32,228.04c0-0.48-0.07-0.88-0.21-1.21s-0.37-0.6-0.68-0.8
		c-0.37-0.24-0.81-0.39-1.34-0.45c-0.52-0.06-1.17-0.09-1.95-0.09h-2.77v5.73h3c0.73,0,1.3-0.04,1.73-0.13
		c0.43-0.08,0.83-0.26,1.2-0.53c0.37-0.27,0.63-0.61,0.78-1.03S295.32,228.62,295.32,228.04z M296.81,237.09
		c0-0.8-0.11-1.44-0.32-1.91c-0.21-0.47-0.59-0.87-1.15-1.2c-0.38-0.22-0.83-0.37-1.37-0.43c-0.54-0.07-1.19-0.1-1.95-0.1h-3.64
		v7.39h3.07c1.02,0,1.85-0.06,2.5-0.18c0.65-0.12,1.18-0.34,1.59-0.66c0.44-0.35,0.76-0.74,0.96-1.19
		C296.71,238.37,296.81,237.8,296.81,237.09z"/>
</g>
</svg>
