<?xml version="1.0" encoding="utf-8"?>
<!-- Generator: Adobe Illustrator 25.4.1, SVG Export Plug-In . SVG Version: 6.00 Build 0)  -->
<svg version="1.1" id="Слой_1" xmlns="http://www.w3.org/2000/svg" xmlns:xlink="http://www.w3.org/1999/xlink" x="0px" y="0px"
	 viewBox="0 0 841.89 595.28" style="enable-background:new 0 0 841.89 595.28;" xml:space="preserve">
<style type="text/css">
	.st0{stroke:#000000;stroke-width:3;stroke-miterlimit:10;}
	.st1{fill:#190061;}
	.st2{fill:#3500D3;}
	.st3{fill:#FFFFFF;}
</style>
<g>
	<path class="st1" d="M538.48,465.12H315.14c-43.97,0-79.62-35.65-79.62-79.62V162.17c0-43.97,35.65-79.62,79.62-79.62h223.34
		c43.97,0,79.62,35.65,79.62,79.62V385.5C618.1,429.48,582.45,465.12,538.48,465.12z"/>
	<path class="st2" d="M552.84,270.17L359.07,139.45c-3.8-2.56-8.91,0.16-8.91,4.74l0,261.45c0,4.58,5.12,7.3,8.91,4.74
		l193.77-130.72C556.2,277.38,556.2,272.44,552.84,270.17z"/>
	<g>
		<path class="st3" d="M414.88,345.36h-15.63c-0.94,0-1.7-0.76-1.7-1.7V229.64c0-1.81-2.45-2.36-3.23-0.73L358.24,305
			c-0.28,0.59-0.88,0.97-1.53,0.97h-9.19c-0.66,0-1.26-0.38-1.54-0.97l-35.8-76.03c-0.77-1.64-3.23-1.09-3.23,0.72v113.98
			c0,0.94-0.76,1.7-1.7,1.7h-14.38c-0.94,0-1.7-0.76-1.7-1.7V204.01c0-0.94,0.76-1.7,1.7-1.7h23.17c0.65,0,1.25,0.37,1.53,0.96
			l36.12,75.43c0.62,1.29,2.47,1.28,3.07-0.02l34.92-75.39c0.28-0.6,0.88-0.98,1.54-0.98h23.64c0.94,0,1.7,0.76,1.7,1.7v139.66
			C416.58,344.6,415.82,345.36,414.88,345.36z"/>
		<path class="st3" d="M562.74,345.36h-15.63c-0.94,0-1.7-0.76-1.7-1.7v-66.64c0-0.94-0.76-1.7-1.7-1.7h-67.99
			c-0.94,0-1.7,0.76-1.7,1.7v66.64c0,0.94-0.76,1.7-1.7,1.7H456.7c-0.94,0-1.7-0.76-1.7-1.7V204.01c0-0.94,0.76-1.7,1.7-1.7h15.63
			c0.94,0,1.7,0.76,1.7,1.7v52.71c0,0.94,0.76,1.7,1.7,1.7h67.99c0.94,0,1.7-0.76,1.7-1.7v-52.71c0-0.94,0.76-1.7,1.7-1.7h15.63
			c0.94,0,1.7,0.76,1.7,1.7v139.66C564.43,344.6,563.67,345.36,562.74,345.36z"/>
	</g>
</g>
</svg>
