<?xml version="1.0" encoding="utf-8"?>
<!-- Generator: Adobe Illustrator 25.4.1, SVG Export Plug-In . SVG Version: 6.00 Build 0)  -->
<svg version="1.1" id="Слой_1" xmlns="http://www.w3.org/2000/svg" xmlns:xlink="http://www.w3.org/1999/xlink" x="0px" y="0px"
	 viewBox="0 0 1920 1080" style="enable-background:new 0 0 1920 1080;" xml:space="preserve">
<style type="text/css">
	.st0{fill:#FFFFFF;}
	.st1{stroke:#FFFFFF;stroke-width:7;stroke-miterlimit:10;}
</style>
<g>
	<g>
		<path class="st0" d="M664.93,672.63h-35.35V443.56l-73.92,155.87h-21.07L461.2,443.56v229.08h-33.03V406.77h48.21l70.88,148.02
			l68.56-148.02h49.1V672.63z"/>
		<path class="st0" d="M939.71,672.63h-35.35V542.47H771.7v130.16h-35.35V406.77h35.35v104.27h132.66V406.77h35.35V672.63z"/>
	</g>
	<line class="st1" x1="1013.26" y1="407.89" x2="1013.26" y2="672.63"/>
	<g>
		<path class="st0" d="M1157.42,503.48h-11.16v-81.31l-23.34,55.33h-6.65l-23.17-55.33v81.31h-10.43v-94.37h15.22l22.38,52.54
			l21.65-52.54h15.51V503.48z"/>
		<path class="st0" d="M1243.95,503.48h-55.31v-94.37h55.31v11.15h-44.15v25.86h44.15v11.15h-44.15v35.05h44.15V503.48z"/>
		<path class="st0" d="M1341.24,456.39c0,8.58-1.66,16.35-4.99,23.32c-3.33,6.97-7.75,12.38-13.28,16.23
			c-3.83,2.66-8.11,4.58-12.83,5.77c-4.72,1.18-10.93,1.77-18.63,1.77h-21.2v-94.37h20.97c8.19,0,14.71,0.66,19.54,2
			c4.83,1.33,8.92,3.16,12.26,5.48c5.71,4.01,10.17,9.36,13.36,16.04C1339.65,439.3,1341.24,447.22,1341.24,456.39z M1329.57,456.2
			c0-7.4-1.15-13.63-3.44-18.7c-2.29-5.07-5.71-9.06-10.26-11.98c-3.31-2.11-6.82-3.58-10.54-4.4c-3.72-0.82-8.18-1.24-13.36-1.24
			h-10.49v72.82h10.49c5.38,0,10.06-0.44,14.07-1.33c4-0.89,7.68-2.53,11.02-4.94c4.17-3,7.3-6.95,9.39-11.85
			C1328.53,469.68,1329.57,463.55,1329.57,456.2z"/>
		<path class="st0" d="M1397.55,503.48h-33.15v-9.63h10.99v-75.1h-10.99v-9.63h33.15v9.63h-10.99v75.1h10.99V503.48z"/>
		<path class="st0" d="M1491.4,503.48h-11.9l-8.23-26.3h-36.31l-8.23,26.3h-11.33l30.56-94.37h14.89L1491.4,503.48z M1467.84,466.41
			l-14.72-46.33l-14.77,46.33H1467.84z"/>
	</g>
	<g>
		<path class="st0" d="M1142.54,669.61h-11.16v-46.77h-41.89v46.77h-11.16v-95.54h11.16v37.47h41.89v-37.47h11.16V669.61z"/>
		<path class="st0" d="M1236.96,631.24c0,6.93-0.67,12.97-2,18.12c-1.33,5.16-3.52,9.44-6.57,12.86c-2.89,3.25-6.28,5.63-10.15,7.12
			s-8.38,2.25-13.53,2.25c-5.26,0-9.85-0.79-13.76-2.38c-3.91-1.58-7.2-3.91-9.87-6.99c-3.04-3.51-5.23-7.74-6.57-12.71
			c-1.33-4.96-2-11.06-2-18.28v-57.17h11.16v57.81c0,5.18,0.31,9.26,0.93,12.25c0.62,3,1.66,5.71,3.13,8.15
			c1.65,2.78,3.9,4.88,6.74,6.29c2.84,1.41,6.25,2.12,10.23,2.12c4.02,0,7.44-0.7,10.26-2.09c2.82-1.39,5.07-3.5,6.77-6.32
			c1.47-2.44,2.51-5.23,3.13-8.37c0.62-3.15,0.93-7.05,0.93-11.71v-58.13h11.16V631.24z"/>
		<path class="st0" d="M1330.25,640.22c0,4.75-0.79,8.94-2.37,12.58c-1.58,3.64-3.7,6.63-6.37,8.98c-3.16,2.82-6.63,4.83-10.4,6.03
			c-3.78,1.2-8.58,1.8-14.41,1.8h-29.77v-95.54h24.87c6.13,0,10.71,0.26,13.76,0.77c3.04,0.51,5.96,1.58,8.74,3.21
			c3.08,1.84,5.32,4.2,6.71,7.09c1.39,2.89,2.09,6.34,2.09,10.36c0,4.53-1.01,8.4-3.04,11.58c-2.03,3.19-4.74,5.74-8.12,7.67v0.51
			c5.68,1.33,10.15,4.16,13.42,8.5S1330.25,633.59,1330.25,640.22z M1311.48,597.17c0-2.31-0.34-4.25-1.01-5.84
			c-0.68-1.58-1.77-2.87-3.27-3.85c-1.77-1.15-3.91-1.87-6.43-2.15c-2.52-0.28-5.64-0.42-9.36-0.42h-13.31v27.59h14.43
			c3.5,0,6.28-0.2,8.34-0.61c2.73-0.54,5.2-1.84,7.4-3.91c0.25-0.23,0.61-0.65,0.79-0.93
			C1310.68,604.58,1311.48,601.29,1311.48,597.17z M1318.64,640.74c0-3.85-0.51-6.91-1.52-9.18c-1.01-2.27-2.86-4.19-5.53-5.77
			c-1.8-1.07-3.99-1.76-6.57-2.08c-2.57-0.32-5.7-0.48-9.39-0.48h-17.54v35.55h14.77c4.89,0,8.89-0.29,12.01-0.86
			c3.12-0.58,5.68-1.64,7.67-3.18c2.11-1.67,3.65-3.57,4.62-5.71C1318.15,646.88,1318.64,644.12,1318.64,640.74z"/>
	</g>
</g>
</svg>
